<svg width="512px" height="512px" viewBox="0 0 512 512" fill="none" xmlns="http://www.w3.org/2000/svg"><path fill-rule="evenodd" clip-rule="evenodd" d="M256 75.487C216.474 75.487 184.43 107.325 184.43 146.598C184.43 185.872 216.474 217.709 256 217.709C295.526 217.709 327.569 185.872 327.569 146.598C327.569 107.325 295.526 75.487 256 75.487ZM151.398 146.598C151.398 89.199 198.23 42.667 256 42.667C313.771 42.667 360.602 89.199 360.602 146.598C360.602 203.998 313.771 250.53 256 250.53C198.23 250.53 151.398 203.998 151.398 146.598Z" fill="#030D45"/><path fill-rule="evenodd" clip-rule="evenodd" d="M201.945 327.11C155.785 327.11 118.366 364.29 118.366 410.155C118.366 412.563 118.809 414.263 119.273 415.253C119.665 416.087 120.001 416.326 120.282 416.478C133.117 423.418 169.105 436.512 256 436.512C342.895 436.512 378.882 423.418 391.718 416.478C391.998 416.326 392.335 416.087 392.727 415.253C393.193 414.263 393.634 412.563 393.634 410.155C393.634 364.29 356.215 327.11 310.054 327.11H201.945ZM85.333 410.155C85.333 346.165 137.542 294.291 201.945 294.291H310.054C374.458 294.291 426.667 346.165 426.667 410.155C426.667 421.901 422.387 437.261 407.507 445.306C387.795 455.964 345.513 469.333 256 469.333C166.488 469.333 124.204 455.964 104.493 445.306C89.613 437.261 85.333 421.901 85.333 410.155Z" fill="#030D45"/></svg>